<?xml version="1.0" encoding="UTF-8"?>
<svg id="Layer_1" xmlns="http://www.w3.org/2000/svg" version="1.1" viewBox="0 0 3000 2000">
  <!-- Generator: Adobe Illustrator 30.3.0, SVG Export Plug-In . SVG Version: 2.1.3 Build 182)  -->
  <defs>
    <style>
      .st0 {
        fill: #828285;
      }

      .st1 {
        fill: #1775b8;
      }

      .st2 {
        fill: #161515;
      }
    </style>
  </defs>
  <path class="st0" d="M236.1,886.72c34.56-69.21,87.19-125.26,148.35-169.92,60.14-43.92,124.37-78.71,192.85-106.88,76.07-31.29,153.35-55.18,233.25-73.99,187.97-44.24,381.2-64.85,573.84-72.19,264.43-10.07,512.94,1.61,776.03,25.07,22.29,1.99,41.87-2.76,61.56-11.57,20.32-10.34,37.49-24.27,52.95-41.48l.96-6.44c.64-4.29-25.39-14.19-39.66-6.33-14.6,8.04-21.96,31.44-43.14,31.01-24.02-.48-37.76-33.81-41.15-60.77-7.67-61.05,4.84-130.02,36.63-182.48,14.39-23.75,41.79-40.02,58.95-21.03,22.95,25.4,4.31,46.24,49.8,46.71,3.26.03,5.98-7.04,4.7-10.39-18.6-48.87-47.19-86.06-97.35-99.54-35.61-9.57-71.12-15.96-108.99-15.48-152.53,1.94-304.46,10.36-456.96,23.73-140.42,12.32-280,30.29-418.95,55.03-137,24.39-272.14,56.74-404.95,98.84-123.22,39.06-241.8,89.17-354.75,153.07-104.96,59.39-202.58,132.87-280.62,227.17-107.4,129.76-159.55,293.33-122.17,463.47,27.11,123.42,87.71,228.65,169.37,321.35,63.95,72.59,136.09,135.11,215.25,189.34,170.42,116.75,381.89,202.58,580.87,244.96,23.11,4.92,47.3-8.63,60.46-23.81,16.15-18.64,20.12-42.85,14.55-66.79-6.32-27.15-25.9-47.27-53.06-52.45-62.62-11.96-123.33-26.38-183.66-48.96-62.27-23.31-121.06-51.5-179.09-84.87-69.89-40.19-136.79-83.73-201.42-132.54-79.01-59.67-160.39-139.46-212.11-225.65-67.66-112.75-93.22-244.34-32.36-366.2h.02Z"/>
  <path class="st2" d="M2942.61,369.09c4.57-2.74,10.2-7.58,11.44-11.47,1.6-5.04.25-12.38-1.81-17.01-4.31-9.69-13.82-14.37-22.8-9.17-6.93,4.01-13.75,4.87-21.97,2.69-182.63-48.37-377.97-74.17-566.22-85.27l-125.4-7.4c-5.37-.32-9.9-1.17-11.99,4.1-1.26,3.17-.15,11.6,4.53,11.92l252.67,17.46c149.64,13.25,296.81,37.91,442.18,75.6,6.58,1.71,11.69,5.8,14.34,11.3,4.94,10.27,14.61,13.47,25.03,7.24h0Z"/>
  <path class="st2" d="M2838.7,559.16c2.27,8.44,12.82,9.78,19.57,8.64,6.72-1.14,14.64-5.76,16.39-14.09,2.23-10.61-1.05-23.77-11.96-26.4-6.05-1.46-15.79,1.07-21.63-3.23-59.13-43.52-122.05-78.52-189.51-106.82-153.58-64.44-301.7-94.63-464.44-120.09-4.85-.76-8.87,2.33-9.68,6.34-.9,4.44,1.98,9.31,6.8,10.23l51.94,9.87c69.34,13.17,137.61,24.44,206.31,41.75,135.95,34.27,269.09,84.34,383.5,168.7,8.28,6.1,10.01,15,12.72,25.11h-.01Z"/>
  <path class="st2" d="M2760.71,707.05c7.04,8.03,7.84,15.96,8.57,25.78.77,10.32,11.96,15.32,21.19,14.74,8.82-.55,17.47-8.57,17.68-19.31.17-8.71-4.89-21.24-14.97-21.57-6.34-.21-12.04-1.29-16.39-6.31-153.08-176.28-371.04-275.94-587.67-338.35-4.37-1.26-9.73,1.98-10.46,5-1.11,4.6.74,9.3,5.49,10.82l83.2,26.48c60,19.09,117.12,42.38,174.26,69.74,119.94,57.41,229.25,130.63,319.09,233v-.02Z"/>
  <path class="st2" d="M2741.59,580.16c12.87,10.06,5.36,36,30.52,31.94,12.73-2.05,19.67-12.08,17.23-25.2-4.55-24.48-24.24-9.52-40.01-21.96-128.24-101.2-285.62-171.07-442.48-206.87l-124.95-28.52c-4.66-1.06-10.02,2.54-10.53,6.3-.53,3.88,2.3,8.92,6.85,9.97l134.33,31.05c44.67,10.32,86.64,24.15,130.1,39.44,107.85,37.94,208,92.8,298.94,163.85h0Z"/>
  <path class="st2" d="M2790.4,406.82c13.03,4.67,12.63,21.26,25.74,23.66,4.46.82,10.58-2.27,14.46-5.11,9.42-6.89,10.71-16.36,6.09-26.4-4.57-9.9-12.94-15.03-23.15-9.66-6,3.16-13.85,3.57-20.99.9-149.72-55.98-304.62-91.74-463.22-106.66l-109.16-10.27c-4.43-.42-8.77,1.23-10.16,4.45-1.14,2.67.21,10.86,3.36,11.18l136.21,14.11c75.6,7.83,148.74,19.75,222.74,37.75,74.39,18.09,146.12,40.24,218.08,66.05h0Z"/>
  <path class="st1" d="M1428.15,1216.27c223.49-42.25,493.85-46.05,720.25-31.16,110.34,7.26,213.03,23.27,316.72,58.99,24.67,120.42-70.97,300.81-141.52,406.67-93.82,140.78-126.03,136.93-300.72,146.07-122.95,6.43-239.34,2.78-361.13-17.26-185.6-30.54-360.92-81.93-531.63-158.57-198.94-89.32-365.22-222.29-487.71-401.5-81.69-119.53-103.72-246.22,8.72-342.68,57.09-48.98,123.29-84.3,195.66-110.6,327.13-118.9,628.62-169.51,978.18-154.58,174.19,7.44,339.99,31.36,504.05,87.79,9.71,3.34,26.71,17.9,25.35,26.45-6.53,41.19-220.79,81.4-314.4,98.63-170.32,31.36-335.35,62.6-501.2,111.16-134.43,39.36-305.08,114.28-331.97,250.91-20.41,103.71,132.72,179.45,234.78,222.83,111.04,47.19,220.03,79.69,341.06,86.16,10.74-16.66,19.54-33.2,21.67-42.65-137.15-38.32-249.59-99.27-363.05-172.71-15.59-10.09-27.19-53.62-13.11-63.97v.02Z"/>
</svg>