<?xml version="1.0" encoding="UTF-8"?>
<svg id="Layer_1" xmlns="http://www.w3.org/2000/svg" version="1.1" viewBox="0 0 3000 500">
  <!-- Generator: Adobe Illustrator 30.3.0, SVG Export Plug-In . SVG Version: 2.1.3 Build 182)  -->
  <defs>
    <style>
      .st0 {
        fill: #1775b8;
      }
    </style>
  </defs>
  <g id="f8UrF5.tif">
    <g>
      <path class="st0" d="M2894.14,323.41c-64.65,34.15-158.57,55.55-231.81,51.67-6.92-.37-13.33-7.5-15.74-13.9-9.43-25.11-14.97-50.04-19.92-76.71-8.18-44.12-13.61-87.58-11.44-132.68,1.11-23.07,70.48-27.53,98.84-28.05,49.61-.91,97.62,4.08,145.39,16.87l73.16,23.58c14.27,4.6,26.65,12.96,37.39,23.16,15.15,14.39,18.41,34.85,8.51,54.02-18.32,35.47-48.62,63.16-84.37,82.05h0ZM2841.97,251.15c-4.31-23.5-79.72-41.92-111.36-37.16l-2.95,89.61c21.28,2.07,42.14-2.85,62.29-10.51,20.67-7.68,55.2-24.6,52.02-41.94Z"/>
      <path class="st0" d="M198.23,254.07c47.72-9.02,105.45-9.83,153.79-6.65,23.56,1.55,45.49,4.97,67.63,12.6,5.27,25.71-15.16,64.23-30.22,86.84-20.03,30.06-26.91,29.24-64.21,31.19-26.25,1.37-51.11.59-77.11-3.69-39.63-6.52-77.07-17.49-113.52-33.86-42.48-19.07-77.99-47.46-104.14-85.73-17.44-25.52-22.15-52.58,1.86-73.17,12.19-10.46,26.33-18,41.78-23.62,69.85-25.39,134.23-36.19,208.87-33.01,37.19,1.59,72.6,6.7,107.63,18.75,2.07.71,5.7,3.82,5.41,5.65-1.39,8.8-47.14,17.38-67.13,21.06-36.37,6.7-71.61,13.37-107.02,23.74-28.7,8.4-65.14,24.4-70.89,53.58-4.36,22.14,28.34,38.32,50.13,47.58,23.71,10.08,46.98,17.02,72.83,18.4,2.29-3.56,4.17-7.09,4.63-9.11-29.28-8.18-53.29-21.2-77.52-36.88-3.33-2.15-5.81-11.45-2.8-13.66h0Z"/>
      <path class="st0" d="M2382.78,296.63l-74.99,2.48-2.75,23.76,112.35-.02,80.74,4.91c8,.49,14.83,2.86,22.31,6.26-4.34,6.83-8.58,9.89-15.17,12.19-62.75,21.9-129,30.5-195.71,26.93l-63.98-5.44c-4.88-.41-11.84-4.54-15.72-7.92-22.26-59.07-43.25-142.28-38.06-203.89,1.11-13.19,8.9-23,21.87-26.22,49.07-12.19,110.47-7.03,161.98.13l151.35,28.5c8.91,1.68,15.84,5.05,23.86,10.1-3.22,6.4-7.55,10.34-13.8,13.22-39.47,18.19-81.19,27.96-124.85,30.24l-94.11,1.51-2.68,21.78,54.6,1.46c31.09.83,134.47.86,138.67,13,.66,1.92-1.99,6-3.93,7.46-18.28,13.71-38.94,21.03-60.77,27.75-20,6.16-39.34,11.08-61.22,11.81h0Z"/>
      <path class="st0" d="M643.04,314.63c-2.22-1.13-4.02-2.14-5.08-1.86-4.45,1.18-9.59,33.07-31.5,58.83-5.41,6.36-11.51,7.64-18.35,3.32-23.45-14.82-41.36-35.46-54.07-60.6-19.9-39.34-31.32-82-33.34-126.22-1.18-25.87,1.59-47.45,26.28-54.03,75.15-20.05,194.42-5.99,272.11,12.22,15.66,3.67,29.93,9.5,42.35,18.21,14.72,10.33,17.71,27.41,9.61,43.09-21.96,36.14-71.16,60.55-111.29,77.25,12.28,29.21,21.86,58.89,25.22,91.56-22.81-6.72-42.34-15.57-62.53-25.49-20.45-11.32-39.5-22.93-59.41-36.29h0ZM716.48,213.68l-4.98-7.85c-9.59-4.26-19.34-8.32-30.13-8.84l-42.42-2.04-1.05,61.96c24.28-2.49,86.13-31.31,78.58-43.23h0Z"/>
      <path class="st0" d="M1605.53,347.68c-3.43,6.21-7.97,12.73-13.33,15.49-15.21,7.81-76.99-18.19-101.02-29.44-37.35-17.48-71.95-38.27-106.24-60.72l-35.2,81.93-9.07,14.6c-9.27-12.55-15.53-24.23-20.39-38.71-15.38-45.75-21.19-93.94-18.03-142.18.86-13.16,3.46-25.85,8.3-37.38,5.52-13.16,18.27-17.87,31.69-13.69,36.64,10.74,71.49,24.8,104.22,44.79l81.77,49.95c30.69-31.55,63.64-59.83,99.55-85.01,8.17-5.73,16.2-9.68,26.07-12.26,10.06,15.14,7.25,48.76,3.38,69.29-9.5,50.38-26.63,97.95-51.69,143.34h-.01Z"/>
      <path class="st0" d="M1105.5,319.9l-215.76,48.48c-14.39,3.23-37.09,5.42-40.67.27-5.41-7.78,6.27-43.66,14.77-60.47,20.28-40.13,45.45-76.89,76.24-109.95,28.93-31.07,63.17-55.13,102.42-71.01,8.8-3.56,22.31-8.26,31.09-4.5,16.5,7.08,29.17,19.57,41.87,32.11,40.62,40.09,74.01,85.78,101.06,135.83,9.5,21.43,17.93,41.28,24.05,63.66l-1.03,7.46c-.22,1.57-4.6,1.53-6.84,1.65l-63.51-20.43-63.67-23.09h-.02ZM1117.57,274.1c5.23-10.48-21.12-40.98-35.41-53.48-4.46-3.9-10.82-5.89-16.29-3.22-16.39,7.99-30.59,19.95-39.23,36.35,6.22,26.39,82.6,37.05,90.93,20.35Z"/>
      <path class="st0" d="M1918.85,364.49c-3.24,3.79-8.08,9.73-12.35,9.27-4.97-.53-9.84-6.16-12.44-10.58-23.02-39.09-37.56-82.05-42.02-128.06-41.87.56-90.98,1.65-114.72-34.09-9.4-12.48-16.31-26.59-18.77-41.9-2.07-12.85,3.45-22.71,15.94-26.92,18.04-6.08,36.77-8.41,56.53-9.1,68.2-2.38,135.17,2.74,202.98,11.45,38.88,4.99,75.92,11.07,113.61,20.45,9.56,2.38,17.6,5.46,26.39,11.54-10.49,9.68-20.97,14.56-33.56,19.28-43.58,16.31-88.4,27.61-134.78,35.32l-17.87,79.87c-5.14,22.99-16.32,42.99-28.94,63.49v-.02Z"/>
    </g>
  </g>
</svg>